# xmcd
#
# Track frame offsets: 
#        150
#        8807
#        21800
#        34110
#        47812
#        61950
#        74582
#        88162
#        103337
#        116350
#        125217
#        137375
#        152162
#        163250
#        173375
#        184382
#        197195
#        210562
#        225662
#        240355
#        254900
#
# Disc length: 3618 seconds
#
# Revision: 0
# Processed by: cddbd v1.5.2PL0 Copyright (c) Steve Scherf et al.
# Submitted via: ExactAudioCopy v1.0b2
#
DISCID=2e0e2015
DTITLE=Various Artist - Vom Blues zum Rhythm and Blues - CD1
DYEAR=1900
DGENRE=
TTITLE0=Elvis Presley - That's all right
TTITLE1=Arthur Crudup - That's all right
TTITLE2=Rev. Kelsey - Heaven is mine
TTITLE3=Arthur Crudup - If I get lucky
TTITLE4=B. R. and Fellowprisoners - Jody
TTITLE5=C. B. and Fellowprisoners - Rosie
TTITLE6=B. B. and Fellowprisoners - Black Woman
TTITLE7=Mamie Smith - Crazy Blues
TTITLE8=Louis Armstrong - St. Louis Blues
TTITLE9=Sister Rosetta Tharpe - This train
TTITLE10=Little Walter Jacobs - My Babe
TTITLE11=Blind Willie Johnson - John the revelator
TTITLE12=Son House - John the revelator
TTITLE13=Golden Gate Quartet - John the revelator
TTITLE14=Brian Ritchie - John the revelator
TTITLE15=Rev. Blind Gary Davis - I'll fly away
TTITLE16=Jesse Fuller - San Francisco Bay Blues
TTITLE17=Fred McDowell - You got to move
TTITLE18=Elmore James - It hurts me too
TTITLE19=Mississippi Sheiks - Sittin' on top of the world
TTITLE20=Chester Burnett - Sittin' on top of the world
EXTD=
EXTT0=
EXTT1=
EXTT2=
EXTT3=
EXTT4=
EXTT5=
EXTT6=
EXTT7=
EXTT8=
EXTT9=
EXTT10=
EXTT11=
EXTT12=
EXTT13=
EXTT14=
EXTT15=
EXTT16=
EXTT17=
EXTT18=
EXTT19=
EXTT20=
PLAYORDER=
